<svg width="648px" height="218px"
 viewBox="0.00 0.00 647.53 218.00" xmlns="http://www.w3.org/2000/svg" xmlns:xlink="http://www.w3.org/1999/xlink">
<g id="graph0" class="graph" transform="scale(1.0 1.0) rotate(0.0) translate(4.0 214.0)">
<title>G</title>
<polygon fill="white" stroke="none" points="-4,4 -4,-214 643.53,-214 643.53,4 -4,4"/>
<!-- CoupleGraph -->
<g id="node1" class="node">
<title>CoupleGraph</title>
<ellipse fill="none" stroke="black" cx="254.64" cy="-192" rx="59.59" ry="18"/>
<text text-anchor="middle" x="254.64" y="-188.3" font-family="Times New Roman,serif" font-size="14.00">CoupleGraph</text>
</g>
<!-- Parser -->
<g id="node2" class="node">
<title>Parser</title>
<ellipse fill="none" stroke="black" cx="329.64" cy="-105" rx="33.6" ry="18"/>
<text text-anchor="middle" x="329.64" y="-101.3" font-family="Times New Roman,serif" font-size="14.00">Parser</text>
</g>
<!-- CoupleGraph&#45;&#45;Parser -->
<g id="edge1" class="edge">
<title>CoupleGraph&#45;&#45;Parser</title>
<path fill="none" stroke="black" d="M269.46,-174.21C282.95,-158.92 302.71,-136.52 315.87,-121.61"/>
<text text-anchor="middle" x="309.14" y="-144.8" font-family="Times New Roman,serif" font-size="14.00">0,50</text>
</g>
<!-- MethodDeclarationVisitor -->
<g id="node3" class="node">
<title>MethodDeclarationVisitor</title>
<ellipse fill="none" stroke="black" cx="104.64" cy="-18" rx="104.78" ry="18"/>
<text text-anchor="middle" x="104.64" y="-14.3" font-family="Times New Roman,serif" font-size="14.00">MethodDeclarationVisitor</text>
</g>
<!-- Parser&#45;&#45;MethodDeclarationVisitor -->
<g id="edge2" class="edge">
<title>Parser&#45;&#45;MethodDeclarationVisitor</title>
<path fill="none" stroke="black" d="M302.95,-93.92C264.18,-79.27 191.96,-51.99 146.19,-34.7"/>
<text text-anchor="middle" x="243.14" y="-57.8" font-family="Times New Roman,serif" font-size="14.00">0,10</text>
</g>
<!-- MethodInvocationVisitor -->
<g id="node4" class="node">
<title>MethodInvocationVisitor</title>
<ellipse fill="none" stroke="black" cx="329.64" cy="-18" rx="102.08" ry="18"/>
<text text-anchor="middle" x="329.64" y="-14.3" font-family="Times New Roman,serif" font-size="14.00">MethodInvocationVisitor</text>
</g>
<!-- Parser&#45;&#45;MethodInvocationVisitor -->
<g id="edge3" class="edge">
<title>Parser&#45;&#45;MethodInvocationVisitor</title>
<path fill="none" stroke="black" d="M329.64,-86.8C329.64,-72.05 329.64,-50.92 329.64,-36.18"/>
<text text-anchor="middle" x="342.14" y="-57.8" font-family="Times New Roman,serif" font-size="14.00">0,20</text>
</g>
<!-- TypeDeclarationVisitor -->
<g id="node5" class="node">
<title>TypeDeclarationVisitor</title>
<ellipse fill="none" stroke="black" cx="544.64" cy="-18" rx="94.78" ry="18"/>
<text text-anchor="middle" x="544.64" y="-14.3" font-family="Times New Roman,serif" font-size="14.00">TypeDeclarationVisitor</text>
</g>
<!-- Parser&#45;&#45;TypeDeclarationVisitor -->
<g id="edge4" class="edge">
<title>Parser&#45;&#45;TypeDeclarationVisitor</title>
<path fill="none" stroke="black" d="M356,-93.58C393.34,-78.82 461.91,-51.71 505.28,-34.56"/>
<text text-anchor="middle" x="462.14" y="-57.8" font-family="Times New Roman,serif" font-size="14.00">0,10</text>
</g>
<!-- InvocationGraph -->
<g id="node6" class="node">
<title>InvocationGraph</title>
<ellipse fill="none" stroke="black" cx="404.64" cy="-192" rx="72.29" ry="18"/>
<text text-anchor="middle" x="404.64" y="-188.3" font-family="Times New Roman,serif" font-size="14.00">InvocationGraph</text>
</g>
<!-- InvocationGraph&#45;&#45;Parser -->
<g id="edge5" class="edge">
<title>InvocationGraph&#45;&#45;Parser</title>
<path fill="none" stroke="black" d="M389.82,-174.21C376.33,-158.92 356.57,-136.52 343.42,-121.61"/>
<text text-anchor="middle" x="383.14" y="-144.8" font-family="Times New Roman,serif" font-size="14.00">0,10</text>
</g>
</g>
</svg>
